Poster: 
http://imgr.us/images/bqdow0748ouaav7nxoye.jpg

Info:

Format : Matroska
Format version : Version 2
File size : 1.45 GiB
Duration : 2h 41mn
Overall bit rate : 1 281 Kbps
Encoded date : UTC 2012-12-22 11:12:43
Writing application : mkvmerge v5.8.0 ('No Sleep / Pillow') built on Sep 2 2012 15:37:04
Writing library : libebml v1.2.3 + libmatroska v1.3.0

Video
ID : 1
Format : AVC
Format/Info : Advanced Video Codec
Format profile : High@L4.1
Format settings, CABAC : Yes
Format settings, ReFrames : 9 frames
Codec ID : V_MPEG4/ISO/AVC
Duration : 2h 41mn
Bit rate : 1 087 Kbps
Width : 704 pixels
Height : 320 pixels
Display aspect ratio : 2.2:1
Frame rate mode : Constant
Frame rate : 23.976 fps
Color space : YUV
Chroma subsampling : 4:2:0
Bit depth : 8 bits
Scan type : Progressive
Bits/(Pixel*Frame) : 0.201
Stream size : 1.20 GiB (83%)
Language : Telugu
Default : Yes
Forced : No

Audio
ID : 3
Format : AC-3
Format/Info : Audio Coding 3
Mode extension : CM (complete main)
Format settings, Endianness : Big
Codec ID : A_AC3
Duration : 2h 41mn
Bit rate mode : Constant
Bit rate : 192 Kbps
Channel(s) : 6 channels
Channel positions : Front: L C R, Side: L R, LFE
Sampling rate : 48.0 KHz
Bit depth : 16 bits
Compression mode : Lossy
Stream size : 222 MiB (15%)
Language : Telugu
Default : Yes
Forced : No

Screens: 
http://www.shotpix.com/images/63779721816775576401.png 
http://www.shotpix.com/images/25720406499169099774.png 
http://www.shotpix.com/images/54310082052066091914.png 
http://www.shotpix.com/images/73459263733391441240.png 
http://www.shotpix.com/images/46085942496370702467.png 
http://www.shotpix.com/images/33727136517079128222.png 
http://www.shotpix.com/images/28440560213253828724.png







